# --------------------------------------
# Halo 3 Model - Extracted with Adjutant
# --------------------------------------
v -17.89396 -26.33032 -22.71556
v -17.89396 -37.52891 -22.71556
v -7.226874 -26.33032 -22.71556
v -7.226874 -37.52891 -22.71556
v 3.440208 -26.33032 -22.71556
v 3.440208 -37.52891 -22.71556
v 14.10546 -26.33032 -22.71556
v 14.10546 -37.52891 -22.71556
v -17.89396 -15.1299 -22.71556
v -7.226874 -15.1299 -22.71556
v 3.440208 -15.1299 -22.71556
v 14.10546 -15.1299 -22.71556
v -17.89396 -3.929486 -22.71556
v -7.226874 -3.929486 -22.71556
v 3.440208 -3.929486 -22.71556
v 14.10546 -3.929486 -22.71556
v -17.89396 7.270933 -22.71556
v -7.226874 7.270933 -22.71556
v 3.440208 7.270933 -22.71556
v 14.10546 7.270933 -22.71556
v -17.89396 18.46952 -22.71556
v -7.226874 18.46952 -22.71556
v 3.440208 18.46952 -22.71556
v 14.10546 18.46952 -22.71556
v -22.34345 -67.11095 37.45349
v -12.27489 -69.89644 37.45349
v -1.860387 -10.83288 37.45349
v -1.860387 -70.72258 37.45349
v 8.554111 -69.89644 37.45349
v 18.62268 -67.11095 37.45349
v 28.12751 -62.77189 37.45349
v 36.63665 -56.71109 37.45349
v -7.226874 -25.52977 -70.03693
v -7.226874 -19.12901 -70.03693
v -17.89396 -25.52977 -70.03693
v -17.89396 -19.12901 -70.03693
v -7.226874 -12.73007 -70.03693
v -17.89396 -12.73007 -70.03693
v 3.440208 -25.52977 -70.03693
v 3.440208 -19.12901 -70.03693
v 3.440208 -12.73007 -70.03693
v 14.10546 -25.52977 -70.03693
v 14.10546 -19.12901 -70.03693
v 14.10546 -12.73007 -70.03693
v -7.226874 -6.329314 -70.03693
v -17.89396 -6.329314 -70.03693
v -7.226874 0.06961939 -70.03693
v -17.89396 0.06961939 -70.03693
v 3.440208 -6.329314 -70.03693
v 3.440208 0.06961939 -70.03693
v 14.10546 -6.329314 -70.03693
v 14.10546 0.06961939 -70.03693
v -17.89396 6.470381 -70.03693
v -7.226874 6.470381 -70.03693
v 3.440208 6.470381 -70.03693
v 14.10546 6.470381 -70.03693
v 36.63665 35.04534 37.45349
v 28.12751 41.10614 37.45349
v 18.62268 45.44521 37.45349
v 8.554111 48.23069 37.45349
v -1.860387 49.05865 37.45349
v -12.27489 48.23069 37.45349
v -22.34345 45.44521 37.45349
v 44.08237 -49.38366 37.45349
v 50.00711 -40.77864 37.45349
v 54.49688 -31.34565 37.45349
v 57.11972 -21.23274 37.45349
v 58.11541 -10.83288 37.45349
v 57.11972 -0.4330103 37.45349
v -53.72789 19.11289 37.45349
v -58.21765 9.6799 37.45349
v -60.84049 -0.4330103 37.45349
v -61.83435 -10.83288 37.45349
v -60.84049 -21.23274 37.45349
v -58.21765 -31.34565 37.45349
v -53.72789 -40.77864 37.45349
v 54.49688 9.6799 37.45349
v 50.00711 19.11289 37.45349
v 44.08237 27.71791 37.45349
v -31.84829 41.10614 37.45349
v -40.35743 35.04534 37.45349
v -47.80315 27.71791 37.45349
v -47.80315 -49.38366 37.45349
v -40.35743 -56.71109 37.45349
v -31.84829 -62.77189 37.45349
vt 0.2142799 0.2000001
vt 0.2142799 1.114607E-05
vt 0.4047491 0.2000001
vt 0.4047491 1.114607E-05
vt 0.5952182 0.2000001
vt 0.5952182 1.114607E-05
vt 0.7856874 0.2000001
vt 0.7856874 1.114607E-05
vt 0.2142799 0.4000217
vt 0.4047491 0.4000217
vt 0.5952182 0.4000217
vt 0.7856874 0.4000217
vt 0.2142799 0.6000107
vt 0.4047491 0.6000107
vt 0.5952182 0.6000107
vt 0.7856874 0.6000107
vt 0.2142799 0.8000323
vt 0.4047491 0.8000323
vt 0.5952182 0.8000323
vt 0.7856874 0.8000323
vt 0.2142799 1.000021
vt 0.4047491 1.000021
vt 0.5952182 1.000021
vt 0.7856874 1.000021
vt 0.1343678 -0.5045288
vt 0.3140883 -0.5542487
vt 0.4999837 0.5000162
vt 0.4999837 -0.5690277
vt 0.685879 -0.5542487
vt 0.8655996 -0.5045288
vt 1.035258 -0.4270779
vt 1.187143 -0.3188946
vt 0.4047491 0.2142897
vt 0.4047491 0.3285738
vt 0.2142799 0.2142897
vt 0.2142799 0.3285738
vt 0.4047491 0.4428579
vt 0.2142799 0.4428579
vt 0.5952182 0.2142897
vt 0.5952182 0.3285738
vt 0.5952182 0.4428579
vt 0.7856874 0.2142897
vt 0.7856874 0.3285738
vt 0.7856874 0.4428579
vt 0.4047491 0.5571746
vt 0.2142799 0.5571746
vt 0.4047491 0.6714586
vt 0.2142799 0.6714586
vt 0.5952182 0.5571746
vt 0.5952182 0.6714586
vt 0.7856874 0.5571746
vt 0.7856874 0.6714586
vt 0.2142799 0.7857427
vt 0.4047491 0.7857427
vt 0.5952182 0.7857427
vt 0.7856874 0.7857427
vt 1.187143 1.318927
vt 1.035258 1.42711
vt 0.8655996 1.504561
vt 0.685879 1.554281
vt 0.4999837 1.569027
vt 0.3140883 1.554281
vt 0.1343678 1.504561
vt 1.320047 -0.1881025
vt 1.425801 -0.03450572
vt 1.505942 0.13387
vt 1.552759 0.3143821
vt 1.570532 0.5000162
vt 1.552759 0.6856503
vt -0.4258338 1.034538
vt -0.5059747 0.8661624
vt -0.5527915 0.6856503
vt -0.5705316 0.5000162
vt -0.5527915 0.3143821
vt -0.5059747 0.13387
vt -0.4258338 -0.03450572
vt 1.505942 0.8661624
vt 1.425801 1.034538
vt 1.320047 1.188135
vt -0.0352903 1.42711
vt -0.1871756 1.318927
vt -0.3200793 1.188135
vt -0.3200793 -0.1881025
vt -0.1871756 -0.3188946
vt -0.0352903 -0.4270779
vn 1 1 1
vn 1 1 1
vn 1 1 1
vn 1 1 1
vn 1 1 1
vn 1 1 1
vn 1 1 1
vn 1 1 1
vn 1 1 1
vn 1 1 1
vn 1 1 1
vn 1 1 1
vn 1 1 1
vn 1 1 1
vn 1 1 1
vn 1 1 1
vn 1 1 1
vn 1 1 1
vn 1 1 1
vn 1 1 1
vn 1 1 1
vn 1 1 1
vn 1 1 1
vn 1 1 1
vn 1 1 1
vn 1 1 1
vn 1 1 1
vn 1 1 1
vn 1 1 1
vn 1 1 1
vn 1 1 1
vn 1 1 1
vn 1 1 1
vn 1 1 1
vn 1 1 1
vn 1 1 1
vn 1 1 1
vn 1 1 1
vn 1 1 1
vn 1 1 1
vn 1 1 1
vn 1 1 1
vn 1 1 1
vn 1 1 1
vn 1 1 1
vn 1 1 1
vn 1 1 1
vn 1 1 1
vn 1 1 1
vn 1 1 1
vn 1 1 1
vn 1 1 1
vn 1 1 1
vn 1 1 1
vn 1 1 1
vn 1 1 1
vn 1 1 1
vn 1 1 1
vn 1 1 1
vn 1 1 1
vn 1 1 1
vn 1 1 1
vn 1 1 1
vn 1 1 1
vn 1 1 1
vn 1 1 1
vn 1 1 1
vn 1 1 1
vn 1 1 1
vn 1 1 1
vn 1 1 1
vn 1 1 1
vn 1 1 1
vn 1 1 1
vn 1 1 1
vn 1 1 1
vn 1 1 1
vn 1 1 1
vn 1 1 1
vn 1 1 1
vn 1 1 1
vn 1 1 1
vn 1 1 1
vn 1 1 1
vn 1 1 1
f 1/1/1 2/2/2 3/3/3
f 2/2/2 4/4/4 3/3/3
f 3/3/3 4/4/4 5/5/5
f 4/4/4 6/6/6 5/5/5
f 5/5/5 6/6/6 7/7/7
f 6/6/6 8/8/8 7/7/7
f 9/9/9 1/1/1 10/10/10
f 1/1/1 3/3/3 10/10/10
f 10/10/10 3/3/3 11/11/11
f 3/3/3 5/5/5 11/11/11
f 11/11/11 5/5/5 12/12/12
f 5/5/5 7/7/7 12/12/12
f 13/13/13 9/9/9 14/14/14
f 9/9/9 10/10/10 14/14/14
f 14/14/14 10/10/10 15/15/15
f 10/10/10 11/11/11 15/15/15
f 15/15/15 11/11/11 16/16/16
f 11/11/11 12/12/12 16/16/16
f 17/17/17 13/13/13 18/18/18
f 13/13/13 14/14/14 18/18/18
f 18/18/18 14/14/14 19/19/19
f 14/14/14 15/15/15 19/19/19
f 19/19/19 15/15/15 20/20/20
f 15/15/15 16/16/16 20/20/20
f 21/21/21 17/17/17 22/22/22
f 17/17/17 18/18/18 22/22/22
f 22/22/22 18/18/18 23/23/23
f 18/18/18 19/19/19 23/23/23
f 23/23/23 19/19/19 24/24/24
f 19/19/19 20/20/20 24/24/24
f 25/25/25 26/26/26 27/27/27
f 26/26/26 28/28/28 27/27/27
f 28/28/28 29/29/29 27/27/27
f 29/29/29 30/30/30 27/27/27
f 30/30/30 31/31/31 27/27/27
f 27/27/27 31/31/31 32/32/32
f 33/33/33 34/34/34 35/35/35
f 35/35/35 34/34/34 36/36/36
f 34/34/34 37/37/37 36/36/36
f 36/36/36 37/37/37 38/38/38
f 39/39/39 40/40/40 33/33/33
f 33/33/33 40/40/40 34/34/34
f 40/40/40 41/41/41 34/34/34
f 34/34/34 41/41/41 37/37/37
f 42/42/42 43/43/43 39/39/39
f 39/39/39 43/43/43 40/40/40
f 43/43/43 44/44/44 40/40/40
f 40/40/40 44/44/44 41/41/41
f 37/37/37 45/45/45 38/38/38
f 38/38/38 45/45/45 46/46/46
f 45/45/45 47/47/47 46/46/46
f 46/46/46 47/47/47 48/48/48
f 41/41/41 49/49/49 37/37/37
f 37/37/37 49/49/49 45/45/45
f 49/49/49 50/50/50 45/45/45
f 45/45/45 50/50/50 47/47/47
f 44/44/44 51/51/51 41/41/41
f 41/41/41 51/51/51 49/49/49
f 51/51/51 52/52/52 49/49/49
f 49/49/49 52/52/52 50/50/50
f 53/53/53 48/48/48 54/54/54
f 48/48/48 47/47/47 54/54/54
f 54/54/54 47/47/47 55/55/55
f 47/47/47 50/50/50 55/55/55
f 55/55/55 50/50/50 56/56/56
f 50/50/50 52/52/52 56/56/56
f 57/57/57 58/58/58 27/27/27
f 58/58/58 59/59/59 27/27/27
f 59/59/59 60/60/60 27/27/27
f 60/60/60 61/61/61 27/27/27
f 61/61/61 62/62/62 27/27/27
f 27/27/27 62/62/62 63/63/63
f 32/32/32 64/64/64 27/27/27
f 64/64/64 65/65/65 27/27/27
f 65/65/65 66/66/66 27/27/27
f 66/66/66 67/67/67 27/27/27
f 67/67/67 68/68/68 27/27/27
f 27/27/27 68/68/68 69/69/69
f 70/70/70 71/71/71 27/27/27
f 71/71/71 72/72/72 27/27/27
f 72/72/72 73/73/73 27/27/27
f 73/73/73 74/74/74 27/27/27
f 74/74/74 75/75/75 27/27/27
f 27/27/27 75/75/75 76/76/76
f 69/69/69 77/77/77 27/27/27
f 77/77/77 78/78/78 27/27/27
f 78/78/78 79/79/79 27/27/27
f 27/27/27 79/79/79 57/57/57
f 63/63/63 80/80/80 27/27/27
f 80/80/80 81/81/81 27/27/27
f 81/81/81 82/82/82 27/27/27
f 27/27/27 82/82/82 70/70/70
f 76/76/76 83/83/83 27/27/27
f 83/83/83 84/84/84 27/27/27
f 84/84/84 85/85/85 27/27/27
f 27/27/27 85/85/85 25/25/25
